<svg width="134" height="113" viewBox="0 0 134 113" fill="none" xmlns="http://www.w3.org/2000/svg">
<path d="M35.4676 0C20.4987 0 0.80899 13.1741 0.80899 39.7582C0.80899 51.789 7.18853 63.2752 16.3783 73.785C25.5681 84.2946 37.6971 93.9058 49.8185 102.126C50.4529 102.551 51.2297 102.707 51.9793 102.562C52.729 102.416 53.3905 101.98 53.8196 101.348C54.2487 100.716 54.4104 99.9406 54.2696 99.19C54.1287 98.4395 53.6966 97.7752 53.0677 97.342C41.2033 89.2965 29.4362 79.9213 20.7558 69.9942C12.0753 60.067 6.58543 49.7089 6.58543 39.7582C6.58543 16.0046 23.8941 5.77644 35.4676 5.77644C51.0575 5.77644 59.5212 13.1053 64.756 21.7068C65.012 22.1369 65.3754 22.4931 65.8105 22.7404C66.2456 22.9878 66.7375 23.1178 67.238 23.1178C67.7386 23.1178 68.2305 22.9878 68.6656 22.7404C69.1007 22.4931 69.4641 22.1369 69.7201 21.7068C74.9549 13.1053 83.4186 5.77644 99.0085 5.77644C110.582 5.77644 127.891 16.0046 127.891 39.7582C127.891 51.9259 119.605 64.7337 107.493 76.5378C95.7866 87.9459 80.735 98.2198 67.1929 106.323C66.2426 105.754 65.2683 105.198 64.3047 104.608C63.9816 104.394 63.6189 104.248 63.2381 104.178C62.8573 104.107 62.4663 104.114 62.0882 104.198C61.7102 104.282 61.3528 104.441 61.0374 104.665C60.722 104.89 60.455 105.176 60.2522 105.506C60.0494 105.835 59.9151 106.203 59.8571 106.586C59.7991 106.968 59.8187 107.359 59.9146 107.734C60.0106 108.109 60.181 108.461 60.4158 108.769C60.6505 109.077 60.9448 109.335 61.2811 109.527C62.7891 110.451 64.2762 111.363 65.7488 112.234C66.1984 112.505 66.7133 112.648 67.238 112.648C67.7628 112.648 68.2776 112.505 68.7273 112.234C82.8647 103.872 98.9045 92.9722 111.554 80.6445C124.204 68.3167 133.667 54.4695 133.667 39.7582C133.667 13.1741 113.977 0 99.0085 0C83.54 0 73.5285 7.02401 67.238 15.4339C60.9476 7.02401 50.9361 0 35.4676 0ZM16.4234 30.2812C15.804 30.3368 15.2191 30.5908 14.7557 31.0055C14.2922 31.4201 13.975 31.9733 13.8511 32.5827C11.4121 43.9018 18.0242 54.9427 24.3209 61.2393C24.5886 61.5147 24.9086 61.7339 25.2621 61.8841C25.6156 62.0343 25.9955 62.1125 26.3796 62.1142C26.7636 62.1158 27.1442 62.0408 27.4989 61.8936C27.8537 61.7464 28.1755 61.5299 28.4456 61.2569C28.7157 60.9838 28.9286 60.6596 29.0719 60.3032C29.2152 59.9469 29.2859 59.5655 29.2801 59.1815C29.2742 58.7974 29.1918 58.4184 29.0376 58.0666C28.8835 57.7148 28.6608 57.3973 28.3825 57.1326C23.1263 51.8764 17.7493 42.0989 19.5373 33.8012C19.6402 33.3533 19.6348 32.8873 19.5215 32.4419C19.4081 31.9965 19.1902 31.5846 18.8857 31.2403C18.5811 30.8961 18.1989 30.6295 17.7707 30.4627C17.3424 30.2959 16.8806 30.2336 16.4234 30.2812Z" fill="#FAA434"/>
</svg>
