<svg width="80" height="117" viewBox="0 0 80 117" fill="none" xmlns="http://www.w3.org/2000/svg">
<path d="M21.4099 34.8076C22.6925 34.8076 23.9226 34.298 24.8296 33.3911C25.7365 32.4841 26.246 31.2541 26.246 29.9714C25.5219 26.7979 24.2918 23.7615 22.6031 20.9787C22.5177 20.7302 22.3568 20.5145 22.1429 20.3618C21.929 20.2091 21.6727 20.1271 21.4099 20.1271C21.1471 20.1271 20.8909 20.2091 20.677 20.3618C20.463 20.5145 20.3022 20.7302 20.2167 20.9787C18.528 23.7615 17.298 26.7979 16.5738 29.9714C16.5738 31.2541 17.0833 32.4841 17.9903 33.3911C18.8972 34.298 20.1273 34.8076 21.4099 34.8076Z" fill="#3F3F3F"/>
<path d="M39.5282 34.8076C40.8108 34.8076 42.0409 34.298 42.9479 33.3911C43.8548 32.4841 44.3644 31.2541 44.3644 29.9714C43.6402 26.7979 42.4101 23.7615 40.7214 20.9787C40.636 20.7302 40.4751 20.5145 40.2612 20.3618C40.0473 20.2091 39.791 20.1271 39.5282 20.1271C39.2654 20.1271 39.0092 20.2091 38.7953 20.3618C38.5814 20.5145 38.4205 20.7302 38.3351 20.9787C36.6463 23.7615 35.4163 26.7979 34.6921 29.9714C34.6921 31.2541 35.2016 32.4841 36.1086 33.3911C37.0155 34.298 38.2456 34.8076 39.5282 34.8076V34.8076Z" fill="#3F3F3F"/>
<path d="M57.6465 34.8076C58.9291 34.8076 60.1592 34.298 61.0662 33.3911C61.9731 32.4841 62.4826 31.2541 62.4826 29.9714C61.7585 26.7979 60.5284 23.7615 58.8397 20.9787C58.7543 20.7302 58.5934 20.5145 58.3795 20.3618C58.1656 20.2091 57.9093 20.1271 57.6465 20.1271C57.3837 20.1271 57.1275 20.2091 56.9136 20.3618C56.6997 20.5145 56.5388 20.7302 56.4534 20.9787C54.7646 23.7615 53.5346 26.7979 52.8104 29.9714C52.8104 31.2541 53.3199 32.4841 54.2269 33.3911C55.1338 34.298 56.3639 34.8076 57.6465 34.8076V34.8076Z" fill="#3F3F3F"/>
<path d="M30.468 14.6808C31.7506 14.6808 32.9807 14.1713 33.8876 13.2644C34.7946 12.3574 35.3041 11.1273 35.3041 9.84473C34.5799 6.67106 33.3499 3.63455 31.6612 0.851623C31.5757 0.603084 31.4148 0.387421 31.2009 0.234745C30.987 0.0820685 30.7308 0 30.468 0C30.2052 0 29.9489 0.0820685 29.735 0.234745C29.5211 0.387421 29.3602 0.603084 29.2748 0.851623C27.5861 3.63444 26.3561 6.67082 25.6319 9.84437C25.6318 10.4795 25.7569 11.1084 25.9999 11.6952C26.2429 12.282 26.5991 12.8151 27.0482 13.2643C27.4973 13.7134 28.0304 14.0696 28.6172 14.3127C29.204 14.5557 29.8329 14.6808 30.468 14.6808V14.6808Z" fill="#3F3F3F"/>
<path d="M48.5863 14.6808C49.8689 14.6808 51.099 14.1713 52.006 13.2644C52.9129 12.3574 53.4224 11.1273 53.4224 9.84473C52.6983 6.67106 51.4682 3.63455 49.7795 0.851623C49.6941 0.603084 49.5332 0.387421 49.3193 0.234745C49.1054 0.0820685 48.8491 0 48.5863 0C48.3235 0 48.0672 0.0820685 47.8533 0.234745C47.6394 0.387421 47.4785 0.603084 47.3931 0.851623C45.7044 3.63444 44.4744 6.67082 43.7502 9.84437C43.7501 10.4795 43.8752 11.1084 44.1182 11.6952C44.3612 12.282 44.7174 12.8151 45.1665 13.2643C45.6156 13.7134 46.1487 14.0696 46.7355 14.3127C47.3223 14.5557 47.9512 14.6808 48.5863 14.6808V14.6808Z" fill="#3F3F3F"/>
<path d="M36.8343 103.407V114.529C36.8421 115.176 37.1044 115.793 37.5642 116.247C38.024 116.701 38.6444 116.956 39.2908 116.956C39.9372 116.956 40.5575 116.701 41.0173 116.247C41.4771 115.793 41.7394 115.176 41.7472 114.529V103.407C58.4213 101.105 72.3637 75.8749 73.3305 54.0504C74.9139 53.8357 76.3659 53.0549 77.4181 51.8524C78.4703 50.6499 79.0515 49.1071 79.0541 47.5092V47.2154C79.0521 45.4636 78.3553 43.7841 77.1165 42.5454C75.8777 41.3068 74.1981 40.6101 72.4463 40.6083H6.60713C4.8554 40.6102 3.17596 41.3069 1.93729 42.5456C0.698628 43.7843 0.00190831 45.4637 0 47.2154V47.5096C0.00206085 49.025 0.524218 50.4938 1.4792 51.6705C2.43418 52.8472 3.76412 53.6605 5.2467 53.9743C6.18321 75.8158 20.1408 101.102 36.8343 103.407ZM39.2909 98.6846C25.6153 98.6846 11.1844 76.212 10.1693 54.1171H68.4122C67.3971 76.2116 52.9663 98.6846 39.2909 98.6846ZM4.9129 47.2154C4.91887 46.768 5.09929 46.3405 5.41573 46.024C5.73217 45.7076 6.15965 45.5272 6.60713 45.5212H72.4466C72.8957 45.522 73.3262 45.7007 73.6438 46.0183C73.9614 46.3358 74.1401 46.7663 74.1409 47.2154V47.5096C74.1401 47.9587 73.9614 48.3892 73.6438 48.7067C73.3262 49.0243 72.8957 49.203 72.4466 49.2038H6.60713C6.15965 49.1978 5.73217 49.0174 5.41573 48.701C5.09929 48.3845 4.91887 47.9571 4.9129 47.5096V47.2154Z" fill="#FAA434"/>
<path d="M57.927 71.1559C57.6595 70.8565 57.315 70.6361 56.931 70.5187C56.547 70.4013 56.1382 70.3914 55.749 70.4901C50.308 71.7973 44.7429 72.5195 39.1484 72.6443C33.5545 72.5194 27.9899 71.7972 22.5493 70.4901C22.1624 70.3921 21.7561 70.4016 21.3742 70.5176C20.9923 70.6335 20.6493 70.8516 20.3822 71.1482C20.1151 71.4447 19.9341 71.8086 19.8586 72.2005C19.7831 72.5925 19.8161 72.9976 19.9539 73.3721C24.6606 86.1401 31.8856 93.7623 39.2782 93.7623C46.3568 93.7623 53.4834 86.148 58.3415 73.3956C58.4842 73.0201 58.5209 72.6126 58.4478 72.2177C58.3747 71.8227 58.1946 71.4555 57.927 71.1559V71.1559Z" fill="#3F3F3F"/>
</svg>
