<svg width="129" height="113" viewBox="0 0 129 113" fill="none" xmlns="http://www.w3.org/2000/svg">
<path d="M118.802 12.0716C119.914 12.0716 120.816 11.1708 120.816 10.0596C120.816 8.94847 119.914 8.0477 118.802 8.0477C117.69 8.0477 116.789 8.94847 116.789 10.0596C116.789 11.1708 117.69 12.0716 118.802 12.0716Z" fill="#3F3F3F"/>
<path d="M110.748 12.0716C111.86 12.0716 112.762 11.1708 112.762 10.0596C112.762 8.94847 111.86 8.0477 110.748 8.0477C109.636 8.0477 108.734 8.94847 108.734 10.0596C108.734 11.1708 109.636 12.0716 110.748 12.0716Z" fill="#3F3F3F"/>
<path d="M102.694 12.0716C103.806 12.0716 104.707 11.1708 104.707 10.0596C104.707 8.94847 103.806 8.0477 102.694 8.0477C101.581 8.0477 100.68 8.94847 100.68 10.0596C100.68 11.1708 101.581 12.0716 102.694 12.0716Z" fill="#3F3F3F"/>
<path d="M122.829 0H6.04079C4.43868 0 2.90218 0.635911 1.76931 1.76784C0.636439 2.89977 0 4.43499 0 6.03578L0 90.5367C0 92.1375 0.636439 93.6727 1.76931 94.8046C2.90218 95.9366 4.43868 96.5725 6.04079 96.5725H52.3535V108.644H32.2176V112.668H96.6527V108.644H76.5167V96.5725H122.829C124.432 96.5725 125.968 95.9366 127.101 94.8046C128.234 93.6727 128.87 92.1375 128.87 90.5367V6.03578C128.87 4.43499 128.234 2.89977 127.101 1.76784C125.968 0.635911 124.432 0 122.829 0ZM124.843 90.5367C124.843 91.0703 124.631 91.582 124.253 91.9594C123.876 92.3367 123.364 92.5486 122.829 92.5486H6.04079C5.50675 92.5486 4.99459 92.3367 4.61696 91.9594C4.23934 91.582 4.0272 91.0703 4.0272 90.5367V6.03578C4.0272 5.50218 4.23934 4.99044 4.61696 4.61313C4.99459 4.23582 5.50675 4.02385 6.04079 4.02385H122.829C123.364 4.02385 123.876 4.23582 124.253 4.61313C124.631 4.99044 124.843 5.50218 124.843 6.03578V90.5367Z" fill="#3F3F3F"/>
<path d="M57.0553 61.9875C57.2365 61.6991 57.411 61.404 57.5788 61.1022V61.0418C57.7399 60.7468 57.8943 60.4517 58.0419 60.1566V60.0761C58.1829 59.7844 58.3138 59.4927 58.4447 59.2009L58.5051 59.0802C58.6259 58.7986 58.7467 58.5068 58.8574 58.2151L58.9179 58.0541C59.0185 57.7725 59.1192 57.4908 59.2098 57.2091L59.2803 57.0079C59.3709 56.7363 59.4414 56.4647 59.5219 56.183L59.5924 55.9416C59.6629 55.6801 59.7233 55.4185 59.7837 55.1469C59.7837 55.0463 59.7837 54.9558 59.8542 54.8552C59.9045 54.6037 59.9549 54.3421 59.9951 54.0906C60.0354 53.8391 59.9951 53.8693 60.0555 53.7486C60.1159 53.6279 60.126 53.2255 60.1562 52.964C60.1864 52.7024 60.1562 52.7426 60.1562 52.6219C60.1562 52.3503 60.1562 52.0787 60.2166 51.797C60.2166 51.6864 60.2166 51.5858 60.2166 51.4852C60.2166 51.1029 60.2166 50.7207 60.2166 50.3384C60.2275 44.4948 57.9248 38.8842 53.8111 34.7305C49.6974 30.5769 44.1065 28.2174 38.2583 28.167H37.1207C36.0041 28.2236 34.8934 28.3648 33.7982 28.5895C33.08 28.737 32.3719 28.9181 31.6739 29.1327C30.9758 29.3473 30.3046 29.5954 29.6603 29.8771L28.6535 30.3197C27.9823 30.6282 27.3547 30.9635 26.7708 31.3257C24.6335 32.6283 22.7309 34.2811 21.1428 36.2147C17.8726 40.1791 16.092 45.1608 16.1088 50.2982C16.1088 50.6804 16.1088 51.0627 16.1088 51.445C16.1088 51.5556 16.1088 51.6562 16.1088 51.7568C16.1088 52.0284 16.1088 52.3101 16.1692 52.5817C16.1692 52.6924 16.1692 52.803 16.1692 52.9237C16.1692 53.0444 16.2296 53.4468 16.2698 53.7084C16.3101 53.9699 16.2698 53.9297 16.3303 54.0504C16.3907 54.1711 16.4209 54.5634 16.4712 54.8149C16.4712 54.9155 16.4712 55.0061 16.5417 55.1067C16.6021 55.3682 16.6625 55.6398 16.733 55.9014L16.8035 56.1428C16.884 56.4144 16.9545 56.6961 17.0451 56.9677L17.1156 57.1689C17.2062 57.4506 17.3069 57.7322 17.4075 58.0139L17.4679 58.1749C17.5787 58.4666 17.6894 58.7483 17.8203 59.04L17.8807 59.1607C18.0116 59.4524 18.1425 59.7442 18.2834 60.0359V60.1164C18.4311 60.4182 18.5855 60.7132 18.7466 61.0016V61.062C18.9144 61.3638 19.0889 61.6588 19.2701 61.9472C19.458 62.2423 19.6527 62.534 19.8541 62.8224C20.6778 64.0103 21.6152 65.1153 22.653 66.122C26.7777 70.137 32.3085 72.3839 38.067 72.3839C43.8256 72.3839 49.3564 70.137 53.4811 66.122C54.5189 65.1153 55.4563 64.0103 56.28 62.8224C56.6089 62.5608 56.8673 62.2825 57.0553 61.9875ZM38.2583 68.4055C35.5545 68.4038 32.8853 67.7977 30.4463 66.6314C28.0074 65.4652 25.8606 63.7685 24.1632 61.6655C25.4095 58.9794 27.3987 56.7055 29.8962 55.112C32.3936 53.5185 35.2951 52.672 38.2583 52.6722C36.7231 52.6722 35.2223 52.2174 33.9458 51.3651C32.6692 50.5129 31.6743 49.3016 31.0868 47.8843C30.4993 46.4671 30.3456 44.9076 30.6451 43.4031C30.9446 41.8986 31.6839 40.5166 32.7695 39.4319C33.8551 38.3473 35.2382 37.6086 36.744 37.3093C38.2497 37.01 39.8105 37.1636 41.2289 37.7507C42.6473 38.3377 43.8596 39.3318 44.7126 40.6073C45.5655 41.8827 46.0208 43.3823 46.0208 44.9163C46.0208 46.9733 45.2029 48.946 43.7472 50.4006C42.2915 51.8551 40.3171 52.6722 38.2583 52.6722C41.2216 52.672 44.123 53.5185 46.6205 55.112C49.1179 56.7055 51.1072 58.9794 52.3535 61.6655C50.6561 63.7685 48.5093 65.4652 46.0703 66.6314C43.6314 67.7977 40.9622 68.4038 38.2583 68.4055Z" fill="#FAA434"/>
<path d="M78.5303 28.167C77.2823 28.1684 76.0654 28.556 75.0468 29.2765C74.0282 29.9971 73.2579 31.0151 72.8419 32.1908H64.4352V36.2147H72.8419C73.2612 37.3867 74.0328 38.4006 75.0511 39.1175C76.0694 39.8343 77.2846 40.2191 78.5303 40.2191C79.776 40.2191 80.9912 39.8343 82.0096 39.1175C83.0279 38.4006 83.7995 37.3867 84.2188 36.2147H112.762V32.1908H84.2188C83.8027 31.0151 83.0325 29.9971 82.0139 29.2765C80.9953 28.556 79.7784 28.1684 78.5303 28.167Z" fill="#FAA434"/>
<path d="M106.721 44.2624C105.473 44.2638 104.256 44.6514 103.237 45.372C102.219 46.0925 101.448 47.1106 101.032 48.2862H64.4352V52.3101H101.032C101.402 53.3536 102.051 54.2756 102.909 54.9753C103.768 55.6749 104.802 56.1252 105.899 56.277C106.997 56.4287 108.115 56.2761 109.131 55.8357C110.147 55.3953 111.023 54.6842 111.662 53.7801C112.301 52.876 112.679 51.8137 112.754 50.7095C112.83 49.6052 112.6 48.5015 112.09 47.5189C111.58 46.5364 110.809 45.7129 109.862 45.1386C108.915 44.5642 107.828 44.2611 106.721 44.2624Z" fill="#3F3F3F"/>
<path d="M88.5983 60.3578C87.3503 60.3592 86.1334 60.7469 85.1148 61.4674C84.0962 62.1879 83.3259 63.206 82.9099 64.3817H64.4352V68.4055H82.9099C83.3291 69.5776 84.1008 70.5915 85.1191 71.3083C86.1374 72.0252 87.3526 72.41 88.5983 72.41C89.844 72.41 91.0592 72.0252 92.0776 71.3083C93.0959 70.5915 93.8675 69.5776 94.2867 68.4055H112.762V64.3817H94.2867C93.8707 63.206 93.1005 62.1879 92.0819 61.4674C91.0633 60.7469 89.8463 60.3592 88.5983 60.3578Z" fill="#3F3F3F"/>
</svg>
