<?xml version="1.0" encoding="utf-8"?>
<!-- Generator: Adobe Illustrator 25.3.1, SVG Export Plug-In . SVG Version: 6.00 Build 0)  -->
<svg version="1.1" id="Layer_1" xmlns="http://www.w3.org/2000/svg" xmlns:xlink="http://www.w3.org/1999/xlink" x="0px" y="0px"
	 viewBox="0 0 1920 283.6" style="enable-background:new 0 0 1920 283.6;" xml:space="preserve">
<style type="text/css">
	.st0{fill:#FAA434;}
</style>
<g>
	<path class="st0" d="M301.1,33.5l5.7,56.7c0.3,2.6,0.4,4.7,0.4,6.3c0,4-1.8,6.1-5.3,6.1c-3.2,0-6-2.3-8.2-6.8
		c-10.2-21-23.6-38.1-40.2-51.2c-16.6-13.2-35.8-19.8-57.4-19.8c-27.9,0-49.7,11.7-65.4,35c-15.7,23.3-23.6,50.9-23.6,82.7
		c0,35.5,8.7,64.5,26.1,87.1c17.4,22.6,37.9,33.9,61.5,33.9c10,0,20.2-2.3,30.6-6.9c10.4-4.6,17-9.6,19.9-14.9
		c2.9-5.3,4.4-12.9,4.4-22.8c0-21.9-0.9-35.6-2.7-41c-1.8-5.4-4.7-9.2-8.7-11.2c-4.1-2.1-12.3-3.8-24.7-5.3
		c-4.8-0.5-7.3-2.4-7.3-5.7c0-3.8,2.3-5.7,6.9-5.7h29.6l90.3-2c4,0,6.1,1.7,6.1,5.1c0,2-0.8,3.3-2.3,4c-1.6,0.7-7,2.1-16.4,4
		c-7,1.6-11.5,3.9-13.5,7c-2,3.1-3.5,22.8-4.5,58.9c-0.3,8.1-0.5,12.6-0.8,13.6c-0.3,1-8,5.4-23.2,13.3
		c-15.2,7.9-30.8,13.8-46.9,17.6c-16.1,3.8-32.1,5.8-48,5.8c-26.9,0-50.8-5.3-72-15.8s-38.1-25.5-51-44.7
		c-12.9-19.2-19.4-42.1-19.4-68.7c0-37.5,12.9-70,38.8-97.3c25.9-27.3,61.3-41,106.3-41c15.9,0,30.3,1.9,43.1,5.8
		c12.8,3.8,27.4,9.4,43.7,16.5c3.3,1.4,6.1,2.2,8.4,2.2c2.6,0,4.6-1.9,6.1-5.7c1.8-5,4.2-7.4,7.2-7.4
		C298.2,21.1,300.4,25.2,301.1,33.5z"/>
	<path class="st0" d="M537.3,183.4c0,24-8.9,45.3-26.8,63.9c-17.9,18.6-40.5,28-68.1,28c-25.3,0-46.5-7.8-63.7-23.5
		c-17.2-15.6-25.8-36.5-25.8-62.6c0-26.5,9.1-47.9,27.3-64.2c18.2-16.4,40.3-24.5,66.4-24.5c26.5,0,48.2,7.7,65.2,23.2
		S537.3,159.1,537.3,183.4z M483.3,196.8c0-21.4-3.6-40.8-10.7-58.1c-7.1-17.3-17.3-25.9-30.6-25.9c-11.7,0-20.8,6-27.2,18.1
		c-6.4,12.1-9.6,29-9.6,50.8c0,23.8,3.6,43.2,10.9,58.5S433.3,263,446,263c12.4,0,21.7-6.1,28-18.2
		C480.2,232.7,483.3,216.7,483.3,196.8z"/>
	<path class="st0" d="M623.4,4.5l0.6,164.1c0.1,52.4,1.5,81,4.1,85.8c2.6,4.8,7.8,7.4,15.6,7.8c9.1,0.4,13.7,2.2,13.7,5.5
		c0,4-2.8,6.1-8.4,6.1c-1.6,0-3.8-0.1-6.8-0.4c-12.6-1-24.9-1.6-36.8-1.6c-19.3,0-33.6,0.5-42.8,1.5c-2.6,0.3-5,0.4-7,0.4
		c-5.9,0-8.8-1.8-8.8-5.3c0-3.4,3.3-5.3,10-5.7c7.2-0.4,12.4-1.7,15.7-3.9s5.3-5.3,6.1-9.3c0.7-4,1.1-13.3,1.1-27.9l-0.8-76.9
		l0.6-61.1c0-25.3-1.2-40.7-3.6-46.1c-2.4-5.4-9.6-9.1-21.4-11.1c-7.2-1-10.8-3.1-10.8-6.3c0-2,0.8-3.3,2.4-4
		c1.6-0.7,5.6-1.3,12-1.9C584.8,12.3,606.6,8.9,623.4,4.5z"/>
	<path class="st0" d="M791.1,118.7c0-37.7-0.2-62.8-0.6-75.4c-0.4-12.6-1.4-19.9-3.1-22.1c-1.7-2.2-6.3-3.9-13.9-5.2
		c-5.1-0.8-7.6-2.6-7.6-5.5c0-2.2,0.9-3.6,2.6-4.2c1.8-0.6,7.4-0.9,16.9-0.9h51.6l-0.4,138.8l-1,86.2c0,13.3,1.1,21.7,3.4,25.2
		c2.3,3.5,7.5,5.8,15.7,6.8c4.8,0.5,7.2,2.3,7.2,5.5c0,3.4-2.5,5.1-7.6,5.1h-63.4v-26.8c-5.6,10-12.5,17.5-20.5,22.5
		c-8.1,5-17.5,7.4-28.2,7.4c-19.9,0-37.4-7.7-52.5-23.2s-22.6-35.5-22.6-60c0-26.8,8.6-48.9,25.8-66.1s36.4-25.9,57.5-25.9
		c8,0,15.3,1.5,22,4.4C779.4,108.4,785.5,112.8,791.1,118.7z M720.1,187.4c0,24.9,3.3,43.1,9.9,54.6c6.6,11.5,15,17.3,25.1,17.3
		c9.8,0,18.2-5.5,25.1-16.5c7-11,10.5-30.9,10.5-59.7c0-23.4-2.9-41-8.8-52.7c-5.9-11.7-14.7-17.6-26.6-17.6
		c-11.7,0-20.5,6.2-26.4,18.6C723.1,143.9,720.1,162.6,720.1,187.4z"/>
	<path class="st0" d="M943.2,99.9c0.5,18.3,0.8,50.8,0.8,97.6l-0.6,42c0,8.5,1.4,14.1,4.2,17c2.8,2.9,7.4,4.8,13.8,5.7
		c7.3,0.9,11,3,11,6.3c0,3.5-2.9,5.3-8.6,5.3c-2.7,0-7.5-0.2-14.3-0.6c-14.3-0.9-28.5-1.4-42.6-1.4c-6.9,0-14,0.4-21.1,1.1
		c-4.3,0.6-7.2,0.9-8.8,0.9c-5.7,0-8.6-1.8-8.6-5.3c0-3.4,3.8-5.4,11.3-6.1c10-0.9,15.6-4.3,16.8-10.1c1.2-5.8,1.8-17.6,1.8-35.3
		c0-22.9-0.4-44-1.1-63.3c-0.7-19.2-2.1-30.2-4-32.9c-2-2.7-7-4.6-15.3-5.5c-6.4-0.7-9.6-2.5-9.6-5.7s3.3-5,9.8-5.5l4.1-0.4
		L943.2,99.9z M940.4,33.8c0,7.7-2.8,14.3-8.3,19.8c-5.5,5.5-12.2,8.3-19.8,8.3c-7.8,0-14.5-2.8-19.9-8.3
		c-5.5-5.5-8.2-12.2-8.2-19.8c0-7.8,2.7-14.5,8.2-19.9c5.5-5.5,12.1-8.2,19.9-8.2c7.7,0,14.3,2.7,19.8,8.2
		C937.7,19.4,940.4,26,940.4,33.8z"/>
	<path class="st0" d="M1050.6,4.5l0.6,164.1c0.1,52.4,1.5,81,4.1,85.8c2.6,4.8,7.8,7.4,15.6,7.8c9.1,0.4,13.7,2.2,13.7,5.5
		c0,4-2.8,6.1-8.4,6.1c-1.6,0-3.8-0.1-6.8-0.4c-12.6-1-24.9-1.6-36.8-1.6c-19.3,0-33.6,0.5-42.8,1.5c-2.6,0.3-5,0.4-7,0.4
		c-5.9,0-8.8-1.8-8.8-5.3c0-3.4,3.3-5.3,10-5.7c7.2-0.4,12.4-1.7,15.7-3.9s5.3-5.3,6.1-9.3c0.7-4,1.1-13.3,1.1-27.9l-0.8-76.9
		l0.6-61.1c0-25.3-1.2-40.7-3.6-46.1c-2.4-5.4-9.6-9.1-21.4-11.1c-7.2-1-10.8-3.1-10.8-6.3c0-2,0.8-3.3,2.4-4
		c1.6-0.7,5.6-1.3,12-1.9C1012.1,12.3,1033.8,8.9,1050.6,4.5z"/>
	<path class="st0" d="M1278.4,183.4c0,24-8.9,45.3-26.8,63.9c-17.9,18.6-40.5,28-68.1,28c-25.3,0-46.5-7.8-63.7-23.5
		c-17.2-15.6-25.8-36.5-25.8-62.6c0-26.5,9.1-47.9,27.3-64.2c18.2-16.4,40.3-24.5,66.4-24.5c26.5,0,48.2,7.7,65.2,23.2
		S1278.4,159.1,1278.4,183.4z M1224.4,196.8c0-21.4-3.6-40.8-10.7-58.1c-7.1-17.3-17.3-25.9-30.6-25.9c-11.7,0-20.8,6-27.2,18.1
		c-6.4,12.1-9.6,29-9.6,50.8c0,23.8,3.6,43.2,10.9,58.5s17.2,22.8,29.8,22.8c12.4,0,21.7-6.1,28-18.2
		C1221.3,232.7,1224.4,216.7,1224.4,196.8z"/>
	<path class="st0" d="M1299.4,189.1c0-24.5,8.4-45.5,25.2-63c16.8-17.5,37.9-26.2,63.4-26.2c16.7,0,31.4,4,44.1,12
		c12.7,8,19.1,17.5,19.1,28.5c0,6.5-1.9,11.6-5.8,15.4c-3.8,3.7-8.7,5.6-14.6,5.6c-11.2,0-19.2-8.1-24.1-24.3
		c-2.6-8.9-5.5-15.2-8.6-19c-3.3-3.8-8-5.7-14.1-5.7c-10.7,0-18.7,5.4-24.2,16.1c-5.4,10.7-8.1,26.8-8.1,48.2
		c0,24.5,4.4,44.2,13.3,58.8s20.3,22,34.4,22c18.8,0,32-11.1,39.7-33.4c2.5-7,5.4-10.6,8.8-10.6c3.6,0,5.5,2,5.5,5.9
		c0,11.3-5.8,23.6-17.3,36.9c-11.5,13.2-28.8,19.8-51.7,19.8c-25.2,0-45.6-8.2-61.4-24.5C1307.3,235,1299.4,214.3,1299.4,189.1z"/>
	<path class="st0" d="M1540.2,5.1v178.1c9.2-5.6,20.9-15.3,35.2-29c14.2-13.8,21.3-23.6,21.3-29.4c0-5-6.1-8.1-18.4-9.4
		c-6.3-0.7-9.4-2.6-9.4-5.9c0-3.1,2.6-4.7,7.8-4.7c3.1,0,6.6,0.1,10.4,0.4c10.4,0.5,19.9,0.8,28.4,0.8c5.6,0,11.5-0.1,17.6-0.4
		c8.6-0.5,14.3-0.8,17-0.8c4.7,0,7,1.8,7,5.3c0,3.3-4,5.3-11.9,6.3c-6.6,0.7-13,3-19.2,6.9c-6.1,4-14.3,11.2-24.4,21.8
		c-7.7,8-12.2,12.4-13.5,13.3c8.3,4.7,16.2,11.2,23.6,19.7c7.4,8.4,14.7,25.6,22,51.5c3.2,11.3,5.6,18.8,7.4,22.3
		c1.8,3.5,4.8,6.2,9.1,8.2c4.3,2,10.3,3,18.2,3.2c3.8,0.1,5.7,2,5.7,5.5c0,3.4-2.2,5.1-6.5,5.1c-0.9,0-2.2-0.1-3.7-0.2
		c-14.7-1.2-25.9-1.7-33.4-1.7c-6.5,0-15.8,0.8-28,2.5c-6.4-6.4-11-17.3-13.7-32.9c-3.4-19.2-7.7-31.8-12.9-38
		c-5.3-6.2-12.9-11.2-22.9-15.2c-3.9,3.3-8.1,6.5-12.7,9.6c0.3,34.7,1.6,53.8,4,57.5c2.4,3.6,7.1,5.8,14.1,6.5
		c6.1,0.7,9.1,2.9,9.1,6.6c0,3.6-2.8,5.5-8.4,5.5c-1.7,0-4-0.1-6.8-0.4c-14-1.4-23.7-2.2-29.1-2.2c-8.5,0-19.8,0.6-34,1.8
		c-5.1,0.4-8.5,0.6-10.4,0.6c-6.3,0-9.4-1.9-9.4-5.7c0-3.3,2.5-5.2,7.6-5.9c10.3-1.3,15.9-5.1,16.8-11.3c0.9-6.3,1.4-26.1,1.4-59.4
		l-1.4-135.5c0-12.9-1.4-21.2-4.3-24.8c-2.9-3.6-7.8-6.1-14.7-7.2c-5.7-1-8.6-3-8.6-5.9c0-3.3,3.1-5.1,9.2-5.5
		C1496.6,11.1,1518.3,8.6,1540.2,5.1z"/>
	<path class="st0" d="M1817.4,217.3c0,9.4-2.4,18.5-7.3,27.4c-4.9,8.9-12.3,16.2-22.1,22c-9.8,5.8-21.3,8.7-34.5,8.7
		c-16.4,0-30.3-3.4-41.7-10.2c-5-2.9-8.1-4.3-9.6-4.3c-1.7,0-3,1.1-3.9,3.3c-2.1,5.1-4.6,7.7-7.4,7.7c-1.7,0-2.9-0.6-3.6-1.9
		c-0.7-1.3-1.3-7.1-1.8-17.4c-0.5-10.3-0.7-22.6-0.7-36.8c0-5.5,1.6-8.2,4.7-8.2s6.5,4,10,12.1c12.5,29.3,29.6,44,51.2,44
		c7.6,0,14-2,19.3-5.9c5.3-3.9,7.9-9.6,7.9-17c0-6.3-2.4-11.6-7.3-16.1c-4.9-4.5-14.2-10.1-28.1-16.9c-20.9-10.3-35.1-19.3-42.8-27
		c-7.8-7.7-11.7-17.9-11.7-30.7c0-14.7,5.7-26.7,17-35.9c11.3-9.2,25.3-13.8,41.8-13.8c13.2,0,26.5,3.9,40.1,11.7
		c1.8,1,3.3,1.6,4.5,1.6c1.7,0,3-1.4,3.9-4.3c1.3-3.6,3.2-5.5,5.7-5.5c1.7,0,2.9,0.6,3.5,1.8c0.7,1.2,1.6,7.3,2.7,18.3
		c1.2,11,1.8,20.2,1.8,27.5c0,5.1-1.5,7.6-4.5,7.6c-3.1,0-6.3-3.6-9.6-11c-11.1-24.2-27.1-36.4-47.9-36.4c-7.6,0-13.7,1.9-18.4,5.7
		c-4.7,3.8-7,7.8-7,12.1c0,5.5,3,10.5,9,15.1c6,4.7,17.7,11,35,19c14.9,6.8,25.2,12,31,15.7c5.8,3.7,10.7,9.1,14.8,16
		C1815.4,202.2,1817.4,209.6,1817.4,217.3z"/>
	<path class="st0" d="M1899.6,247.7c0,7.8-2.7,14.4-8.2,19.9c-5.5,5.5-12.1,8.2-19.9,8.2c-7.6,0-14.2-2.7-19.7-8.2
		c-5.5-5.5-8.2-12.1-8.2-19.9c0-7.6,2.7-14.2,8.2-19.7c5.5-5.5,12.1-8.2,19.7-8.2c7.8,0,14.4,2.7,19.9,8.2
		C1896.9,233.5,1899.6,240.1,1899.6,247.7z"/>
</g>
</svg>
