<?xml version="1.0" encoding="utf-8"?>
<!-- Generator: Adobe Illustrator 25.3.1, SVG Export Plug-In . SVG Version: 6.00 Build 0)  -->
<svg version="1.1" id="Layer_1" xmlns="http://www.w3.org/2000/svg" xmlns:xlink="http://www.w3.org/1999/xlink" x="0px" y="0px"
	 viewBox="0 0 201.6 241" style="enable-background:new 0 0 201.6 241;" xml:space="preserve">
<style type="text/css">
	.st0{fill:none;}
</style>
<g>
	<g>
		<path d="M0,22.8c0-1.7,0-3.4,0-5c0.1-0.1,0.2-0.2,0.2-0.3C1.6,7.6,11,0.3,21.1,0.2c53,0,106,0,159,0c1.6,0,3.2,0.1,4.8,0.3
			c2.8,0.3,5,1.9,7.2,3.4c11.6,7.6,12.2,23.3,1.4,31.9c-2.8,2.2-6.1,3.6-9.7,4.4c0,0.4,0,0.8,0,1.2c0.2,16.5-0.8,32.8-3.4,49.1
			c-2.5,15.9-6.3,31.4-12,46.4c-5.8,15.3-13.1,29.6-23.7,42.2c-6.6,7.9-14.2,14.5-23.5,19c-0.7,0.3-0.7,0.8-0.7,1.4
			c0,7.2-0.1,14.4,0,21.6c0.1,8-5.2,15.5-12.5,18.3c-1.6,0.6-3.2,1-4.9,1.4c-1.8,0-3.5,0-5.3,0c-0.2-0.1-0.3-0.2-0.5-0.2
			c-9.6-1.4-16.8-9.7-16.8-19.4c0-7.2,0-14.5,0-21.7c0-0.6,0-1.1-0.7-1.4c-8.5-4.1-15.6-10.1-21.8-17.1c-7.9-8.9-14.1-19-19.2-29.7
			c-12.1-25.5-18-52.7-20.5-80.7c-0.9-9.9-1.1-19.8-1-29.7c0-0.3-0.1-0.5-0.1-0.8c-0.2-0.1-0.3-0.1-0.4-0.1
			C8.8,38.1,3.1,33.4,0.6,25.3C0.4,24.5,0.2,23.6,0,22.8z M186,20.6c0.1-2.2-1.2-3.7-3.1-4.4c-1.4-0.6-3-0.8-4.5-0.8
			c-51.9,0-103.8,0-155.6,0c-0.6,0-1.3,0-1.9,0c-1.9,0.2-3.5,0.9-4.7,2.3c-1.4,1.6-1.3,3.8,0.1,5.4c1.2,1.4,2.8,2.2,4.6,2.2
			c4.8,0.1,9.7,0,14.5,0c0.5,0,1,0.1,1.6,0.1c25.1,0,50.3,0,75.4,0.1c1.8,0,3.7,0.4,5.3,1.2c3,1.5,4.4,5,3.5,8.3
			c-0.9,3.3-3.9,5.6-7.4,5.6c-21.1,0-42.3,0-63.4,0c-0.5,0-1,0-1.6,0c-5.3,0-10.7,0-16.1,0c0,0.3-0.1,0.5-0.1,0.6
			c-0.3,13.7,0.4,27.4,2.3,41c1.3,9.9,3.2,19.7,5.7,29.3c2,7.8,4.5,15.5,7.5,23c0.4,1.1,0.9,1.5,2.1,1.4c1.6-0.1,3.3,0,4.9,0
			c3,0,5.9-0.1,8.9-0.1c0.6,0,1.2,0.1,1.8,0.1c13.5,0,27.1,0,40.6,0c2.8,0,4.8,2.1,4.9,4.9c0,2.7-2.1,5-4.8,5c-6.9,0-13.8,0-20.7,0
			c-5.8,0-11.5,0-17.3,0.1c-5.1,0-10.1,0-15.2,0c0,0.1,0.1,0.3,0.1,0.4c2.7,4.7,5.3,9.4,8,14c0.2,0.3,0.8,0.5,1.2,0.5
			c4.6,0,9.3,0,13.9,0c7.8,0,15.6,0,23.5,0c2.9,0,5.1,2.1,5.1,4.9c0,2.9-2.1,5-5.1,5c-2.8,0-5.6,0-8.4,0c-2.6,0-5.2,0.1-7.8,0.1
			c-4.7,0-9.4,0-14.1,0c0.1,0.2,0.1,0.3,0.2,0.4c4.8,5.4,10.1,10,16.6,13.1c4.2,2,8.5,3.4,13.2,3.3c0.9-0.1,1.8-0.1,2.7-0.2
			c0.4,0.1,0.8,0.3,1.1,0.2c2.6-0.6,5.3-1,7.9-1.9c7.8-2.8,14-7.9,19.6-13.9c0.2-0.2,0.3-0.5,0.5-0.8c-4.5-0.1-8.9-0.3-13.2-0.4
			c-0.6-0.6-1.4-1.1-1.9-1.8c-1.2-1.6-1.3-3.3-0.4-5.1c0.9-1.7,2.3-2.7,4.3-2.8c1.6,0,3.2-0.1,4.9-0.2c0.4,0.1,0.8,0.2,1.3,0.2
			c4.1,0,8.1,0,12.2,0c0.5,0,1.2-0.5,1.5-0.9c2.6-4.4,5.1-8.8,7.6-13.1c0.1-0.3,0.2-0.6,0.4-1c-5,0-9.9,0-14.8,0c-1.9,0-3.8,0-5.6,0
			c-2.8-0.1-4.8-2.3-4.8-5.1c0-2.7,2.1-4.8,4.8-4.8c3.4,0,6.7,0,10,0c4.6,0,9.2,0,13.8,0c0.8,0,1.3-0.1,1.6-1
			c4.5-11.3,7.8-22.9,10.3-34.8c1.9-9.2,3.4-18.5,4.1-27.9c0.5-6.3,0.8-12.6,1.2-18.9c0.1-2,0.1-4,0.1-6c0-2.3,0-4.7,0-7.1
			c-5.6,0-10.8,0-16,0c-2.1-0.2-4.1-0.2-6.2-0.5c-3.9-0.6-6.4-4-6.1-8c0.3-3.6,3.3-6.6,7.1-6.6c6.5-0.1,13.1,0,19.6,0
			c4.3,0,8.6,0,12.8,0C183,25.4,185.6,23.2,186,20.6z M105.4,203c-3.3,0-6.4,0-9.6,0c0,0.1-0.1,0.2-0.1,0.3c0,6.1,0,12.2,0,18.4
			c0,0.6,0.2,1.3,0.5,1.8c1,1.8,3.4,2.8,5.5,2.3c2.2-0.6,3.6-2.2,3.7-4.6c0-5.8,0-11.7,0-17.5C105.4,203.4,105.4,203.2,105.4,203z"
			/>
		<path class="st0" d="M103.2,241c1.6-0.5,3.3-0.8,4.9-1.4c7.3-2.8,12.6-10.3,12.5-18.3c-0.1-7.2,0-14.4,0-21.6c0-0.6,0-1.1,0.7-1.4
			c9.3-4.5,16.9-11.2,23.5-19c10.6-12.6,17.9-26.9,23.7-42.2c5.7-15,9.5-30.6,12-46.4c2.5-16.3,3.6-32.6,3.4-49.1c0-0.4,0-0.8,0-1.2
			c3.6-0.7,6.8-2.1,9.7-4.4c10.8-8.6,10.2-24.3-1.4-31.9c-2.2-1.5-4.4-3.1-7.2-3.4c-1.6-0.2-3.2-0.3-4.8-0.3c-53,0-106,0-159,0
			C11,0.3,1.6,7.6,0.2,17.5c0,0.1-0.1,0.2-0.2,0.3C0,11.8,0,5.9,0,0c67.2,0,134.4,0,201.6,0c0,80.3,0,160.6,0,241
			C168.8,241,136,241,103.2,241z"/>
		<path class="st0" d="M0,22.8c0.2,0.8,0.4,1.7,0.6,2.5c2.5,8.1,8.1,12.8,16.2,14.7c0.1,0,0.2,0.1,0.4,0.1c0,0.3,0.1,0.5,0.1,0.8
			c-0.1,9.9,0.1,19.8,1,29.7c2.5,28,8.4,55.1,20.5,80.7c5.1,10.7,11.3,20.8,19.2,29.7c6.2,7,13.3,13,21.8,17.1
			c0.7,0.3,0.7,0.8,0.7,1.4c0,7.2,0,14.5,0,21.7c0,9.7,7.2,18,16.8,19.4c0.2,0,0.4,0.1,0.5,0.2c-32.6,0-65.3,0-97.9,0
			C0,168.2,0,95.5,0,22.8z"/>
	</g>
</g>
</svg>
